# xmcd
#
# Track frame offsets:
#	150
#	13450
#	29367
#	41793
#	61329
#	72508
#	89614
#	102586
#	115808
#	129402
#	144872
#	159427
#	174802
#	190273
#
# Disc length: 2722 seconds
#
# Revision: 2
# Processed by: cddbd v1.5.2PL0 Copyright (c) Steve Scherf et al.
# Submitted via: audiograbber 1.83.01
#
DISCID=c30aa00e
DTITLE=Truck Stop - Take it easy, altes Haus
DYEAR=1900
DGENRE=Country
TTITLE0=Take it easy, altes Haus
TTITLE1=Ich möcht' so gern Dave Dudley hör'n
TTITLE2=Der wilde, wilde Westen
TTITLE3=Nein Danke, ich rauch' nicht mehr
TTITLE4=Großstadtrevier
TTITLE5=Old Texas Town, die Westernstadt
TTITLE6=Die Frau mit dem Gurt
TTITLE7=Arizona, Arizona
TTITLE8=Hillybilly, Country Lilly
TTITLE9=Alles Bingo
TTITLE10=Ein Tag wie ein Freund
TTITLE11=Square Dance-Darling
TTITLE12=Jeden Tag in einer ander'n Stadt
TTITLE13=Das gibt's doch nur in Dallas
EXTD=
EXTT0=
EXTT1=
EXTT2=
EXTT3=
EXTT4=
EXTT5=
EXTT6=
EXTT7=
EXTT8=
EXTT9=
EXTT10=
EXTT11=
EXTT12=
EXTT13=
PLAYORDER=
